<svg fill="#ffffff" width="64px" height="128px" viewBox="0 0 32.00 32.00" style="fill-rule:evenodd;clip-rule:evenodd;stroke-linejoin:round;stroke-miterlimit:2;" version="1.1" xml:space="preserve" xmlns="http://www.w3.org/2000/svg" xmlns:serif="http://www.serif.com/" xmlns:xlink="http://www.w3.org/1999/xlink" stroke="#ffffff" stroke-width="1.6960000000000002" ><g id="SVGRepo_bgCarrier" stroke-width="0"></g><g id="SVGRepo_tracerCarrier" stroke-linecap="round" stroke-linejoin="round" stroke="#CCCCCC" stroke-width="0.576"> <g id="Icon"> <path d="M4,4.998l0.002,22.002c0,0.552 0.448,1 1,1c0.552,-0 1,-0.448 1,-1l-0.002,-22.002c-0,-0.552 -0.448,-1 -1,-1c-0.552,-0 -1,0.448 -1,1Z"></path> <path d="M10.998,5.004l0.002,21.996c0,0.552 0.448,1 1,1c0.552,-0 1,-0.448 1,-1l-0.002,-21.996c-0,-0.552 -0.448,-1 -1,-1c-0.552,-0 -1,0.448 -1,1Z"></path> <path d="M15.108,5.356l10.996,22c0.247,0.493 0.848,0.694 1.341,0.447c0.494,-0.247 0.694,-0.848 0.448,-1.341l-10.996,-22c-0.247,-0.494 -0.848,-0.695 -1.342,-0.448c-0.494,0.247 -0.694,0.848 -0.447,1.342Z"></path> </g> </g><g id="SVGRepo_iconCarrier"> <g id="Icon"> <path d="M4,4.998l0.002,22.002c0,0.552 0.448,1 1,1c0.552,-0 1,-0.448 1,-1l-0.002,-22.002c-0,-0.552 -0.448,-1 -1,-1c-0.552,-0 -1,0.448 -1,1Z"></path> <path d="M10.998,5.004l0.002,21.996c0,0.552 0.448,1 1,1c0.552,-0 1,-0.448 1,-1l-0.002,-21.996c-0,-0.552 -0.448,-1 -1,-1c-0.552,-0 -1,0.448 -1,1Z"></path> <path d="M15.108,5.356l10.996,22c0.247,0.493 0.848,0.694 1.341,0.447c0.494,-0.247 0.694,-0.848 0.448,-1.341l-10.996,-22c-0.247,-0.494 -0.848,-0.695 -1.342,-0.448c-0.494,0.247 -0.694,0.848 -0.447,1.342Z"></path> </g> </g></svg>